<svg xmlns="http://www.w3.org/2000/svg" width="32" height="32" viewBox="0 0 32 32">
  <!-- 身体 (橙色) -->
  <path d="M16,18 C20,18 24,22 24,26 C24,30 20,30 16,30 C12,30 8,30 8,26 C8,22 12,18 16,18 Z" fill="#F57D31"/>
  
  <!-- 腹部 (奶油色) -->
  <path d="M16,20 C20,20 22,22 22,24 C22,26 20,28 16,28 C12,28 10,26 10,24 C10,22 12,20 16,20 Z" fill="#F8F3E6"/>
  
  <!-- 头部 -->
  <path d="M16,10 C20,10 24,14 24,18 C24,20 22,22 20,22 L12,22 C10,22 8,20 8,18 C8,14 12,10 16,10 Z" fill="#F57D31"/>
  
  <!-- 嘴部 -->
  <path d="M14,18 L18,18 L18,20 L14,20 Z" fill="#333"/>
  
  <!-- 眼睛 -->
  <circle cx="14" cy="16" r="2" fill="#FFF"/>
  <circle cx="18" cy="16" r="2" fill="#FFF"/>
  <circle cx="14" cy="16" r="1" fill="#333"/>
  <circle cx="18" cy="16" r="1" fill="#333"/>
  
  <!-- 角 -->
  <path d="M12,8 L14,6 L16,8" fill="#F57D31" stroke="#333" stroke-width="0.5"/>
  <path d="M20,8 L22,6 L24,8" fill="#F57D31" stroke="#333" stroke-width="0.5"/>
  
  <!-- 翅膀 (简化版) -->
  <path d="M8,20 C6,16 4,18 4,22 C4,26 6,28 8,24 Z" fill="#F57D31" opacity="0.8"/>
  <path d="M24,20 C26,16 28,18 28,22 C28,26 26,28 24,24 Z" fill="#F57D31" opacity="0.8"/>
  
  <!-- 尾巴火焰 -->
  <path d="M8,26 L4,24 L8,22 Z" fill="#FF0000"/>
  <path d="M8,24 L6,22 L8,20 Z" fill="#FF9900"/>
</svg>